<svg width="32" height="32" viewBox="0 0 32 32" fill="none" xmlns="http://www.w3.org/2000/svg">
<path fill-rule="evenodd" clip-rule="evenodd" d="M21.3334 14.2222V17.0489C22.3962 17.4246 23.108 18.4282 23.1111 19.5555V21.3333C23.1111 21.8242 22.7132 22.2222 22.2222 22.2222H19.4311C19.0103 23.7706 17.6046 24.8453 16 24.8453C14.3955 24.8453 12.9897 23.7706 12.5689 22.2222H9.7778C9.28689 22.2222 8.88892 21.8242 8.88892 21.3333V19.5555C8.89208 18.4282 9.60382 17.4246 10.6667 17.0489V14.2222C10.6693 11.6217 12.547 9.40227 15.1111 8.96886V7.99997C15.1111 7.50905 15.5091 7.11108 16 7.11108C16.4909 7.11108 16.8889 7.50905 16.8889 7.99997V8.96886C19.453 9.40227 21.3307 11.6217 21.3334 14.2222ZM16 10.6666C14.0363 10.6666 12.4445 12.2585 12.4445 14.2222V16.8889H19.5556V14.2222C19.5556 12.2585 17.9637 10.6666 16 10.6666ZM16 23.1111C15.3687 23.1073 14.7868 22.7689 14.4711 22.2222H17.5289C17.2133 22.7689 16.6313 23.1073 16 23.1111ZM10.6667 20.4444H21.3334V19.5555C21.3334 19.0646 20.9354 18.6666 20.4445 18.6666H11.5556C11.0647 18.6666 10.6667 19.0646 10.6667 19.5555V20.4444Z" fill="#545B63"/>
</svg>
