<svg width="10" height="14" viewBox="0 0 10 14" fill="none" xmlns="http://www.w3.org/2000/svg">
<path fill-rule="evenodd" clip-rule="evenodd" d="M0.99998 0.333344H8.99998C9.36817 0.333344 9.66665 0.63182 9.66665 1.00001V13C9.6653 13.2691 9.50226 13.5111 9.25331 13.6133C9.17419 13.6507 9.08743 13.6689 8.99998 13.6667C8.82278 13.6677 8.65246 13.5981 8.52665 13.4733L4.99998 10.5133L1.43331 13.5067C1.23555 13.6758 0.95744 13.7144 0.721073 13.6056C0.484706 13.4967 0.333296 13.2602 0.333313 13V1.00001C0.333313 0.63182 0.63179 0.333344 0.99998 0.333344ZM5.42665 9.13334L8.33331 11.5733V1.66668H1.66665V11.5733L4.57331 9.13334C4.8205 8.92745 5.17946 8.92745 5.42665 9.13334Z" fill="#545B63"/>
</svg>
