<svg width="24" height="24" viewBox="0 0 24 24" fill="none" xmlns="http://www.w3.org/2000/svg">
<path fill-rule="evenodd" clip-rule="evenodd" d="M12 5.33334C8.31809 5.33334 5.33332 8.31811 5.33332 12C5.3275 13.5394 5.86052 15.0324 6.83999 16.22L5.50666 17.5533C5.31749 17.7451 5.26226 18.0317 5.36666 18.28C5.4799 18.5253 5.73003 18.678 5.99999 18.6667H12C15.6819 18.6667 18.6667 15.6819 18.6667 12C18.6667 8.31811 15.6819 5.33334 12 5.33334ZM15.3333 10C15.7015 10 16 10.2985 16 10.6667C16 11.0349 15.7015 11.3333 15.3333 11.3333H8.66666C8.29847 11.3333 7.99999 11.0349 7.99999 10.6667C7.99999 10.2985 8.29847 10 8.66666 10H15.3333ZM8.66666 12.6667H12.6667C13.0348 12.6667 13.3333 12.9652 13.3333 13.3333C13.3333 13.7015 13.0348 14 12.6667 14H8.66666C8.29847 14 7.99999 13.7015 7.99999 13.3333C7.99999 12.9652 8.29847 12.6667 8.66666 12.6667ZM7.60666 17.3333H12C14.5443 17.3313 16.7329 15.5324 17.2274 13.0367C17.722 10.5409 16.3847 8.04336 14.0335 7.07129C11.6822 6.09921 8.9717 6.92333 7.55947 9.03969C6.14725 11.1561 6.42658 13.9753 8.22666 15.7733C8.48514 16.0334 8.48514 16.4533 8.22666 16.7133L7.60666 17.3333Z" fill="#545B63"/>
</svg>
