<svg width="30" height="30" viewBox="0 0 30 30" fill="none" xmlns="http://www.w3.org/2000/svg">
<g clip-path="url(#clip0_1991_5493)">
<circle cx="15" cy="15" r="15" fill="#E4F7F5"/>
<path fill-rule="evenodd" clip-rule="evenodd" d="M20.7694 12.254C20.7703 12.1007 20.7101 11.9533 20.6021 11.8444L18.156 9.39827C18.0471 9.29028 17.8997 9.23008 17.7464 9.23097C17.593 9.23008 17.4456 9.29028 17.3368 9.39827L15.7041 11.031L9.39829 17.3367C9.2903 17.4456 9.2301 17.593 9.23098 17.7464V20.1925C9.23098 20.5111 9.48928 20.7694 9.80791 20.7694H12.2541C12.4173 20.7783 12.5767 20.7175 12.6925 20.6021L18.9637 14.2964L20.6021 12.6925C20.6548 12.6366 20.6977 12.5722 20.7291 12.5021C20.7346 12.4561 20.7346 12.4096 20.7291 12.3637C20.7318 12.3368 20.7318 12.3097 20.7291 12.2829L20.7694 12.254ZM12.0176 19.6154H10.3849V17.9827L16.1138 12.2539L17.7465 13.8866L12.0176 19.6154ZM16.9271 11.4407L18.5598 13.0734L19.3733 12.2541L17.7464 10.6272L16.9271 11.4407Z" fill="#00A981"/>
</g>
<defs>
<clipPath id="clip0_1991_5493">
<rect width="30" height="30" fill="white"/>
</clipPath>
</defs>
</svg>
