<svg width="24" height="24" viewBox="0 0 24 24" fill="none" xmlns="http://www.w3.org/2000/svg">
<path d="M17.6846 8.65025C17.6853 7.7607 17.4139 6.89222 16.9068 6.16136C16.5695 5.59236 15.3799 4.42066 13.3201 4.2858C12.1649 4.28579 11.0568 4.74379 10.2387 5.5594C9.4206 6.37501 8.95922 7.4817 8.95569 8.63691V10.9347H17.6846V8.65025Z" stroke="#545B63" stroke-width="1.2" stroke-linecap="round" stroke-linejoin="round"/>
<path d="M8.48907 10.588C8.51068 10.4248 8.5813 10.272 8.6916 10.1498C8.80191 10.0276 8.9467 9.94176 9.10685 9.9036L9.36907 9.83249C9.56228 9.77792 9.7322 9.66135 9.85266 9.50073C9.97312 9.34012 10.0375 9.14436 10.0357 8.9436V8.03693C10.0362 7.85365 10.097 7.67561 10.2086 7.53024C10.3202 7.38488 10.4766 7.28025 10.6535 7.23248C11.501 7.5708 12.4078 7.73554 13.3202 7.71693C14.2325 7.73554 15.1393 7.5708 15.9869 7.23248C16.1646 7.27943 16.322 7.3837 16.4345 7.52914C16.5469 7.67458 16.6083 7.85306 16.6091 8.03693V8.95249C16.6074 9.15325 16.6717 9.34901 16.7922 9.50962C16.9126 9.67024 17.0825 9.7868 17.2757 9.84138L17.538 9.91249C17.6981 9.95065 17.8429 10.0365 17.9532 10.1587C18.0635 10.2809 18.1341 10.4337 18.1557 10.5969C18.1676 10.7094 18.1556 10.8232 18.1206 10.9308C18.0855 11.0383 18.0281 11.1373 17.9522 11.2212C17.8763 11.3051 17.7835 11.372 17.68 11.4176C17.5764 11.4632 17.4644 11.4864 17.3513 11.4858H17.3202C17.2162 12.4683 16.7523 13.3775 16.0178 14.0383C15.2834 14.6991 14.3304 15.0648 13.3424 15.0648C12.3544 15.0648 11.4014 14.6991 10.667 14.0383C9.93253 13.3775 9.46862 12.4683 9.36463 11.4858H9.31574C9.19991 11.4898 9.08459 11.4687 8.97767 11.424C8.87075 11.3793 8.77475 11.312 8.69624 11.2268C8.61774 11.1415 8.55859 11.0403 8.52283 10.9301C8.48707 10.8198 8.47556 10.7031 8.48907 10.588V10.588Z" fill="white" stroke="#545B63" stroke-width="1.2" stroke-linecap="round" stroke-linejoin="round"/>
<path d="M15.7335 10.508C15.7335 10.5757 15.7134 10.6418 15.6758 10.6981C15.6382 10.7544 15.5848 10.7983 15.5223 10.8242C15.4597 10.8501 15.3909 10.8568 15.3245 10.8436C15.2581 10.8304 15.1972 10.7978 15.1493 10.75C15.1014 10.7021 15.0689 10.6411 15.0556 10.5748C15.0424 10.5084 15.0492 10.4396 15.0751 10.377C15.101 10.3145 15.1449 10.261 15.2012 10.2234C15.2574 10.1858 15.3236 10.1658 15.3913 10.1658C15.4364 10.1652 15.4812 10.1736 15.523 10.1906C15.5648 10.2076 15.6027 10.2328 15.6346 10.2647C15.6665 10.2966 15.6917 10.3345 15.7087 10.3763C15.7257 10.4181 15.7341 10.4629 15.7335 10.508V10.508Z" fill="#545B63" stroke="#545B63" stroke-width="0.604167" stroke-linecap="round" stroke-linejoin="round"/>
<path d="M10.9069 10.508C10.9069 10.5757 10.927 10.6418 10.9646 10.6981C11.0022 10.7544 11.0556 10.7983 11.1181 10.8242C11.1807 10.8501 11.2495 10.8568 11.3159 10.8436C11.3823 10.8304 11.4432 10.7978 11.4911 10.75C11.539 10.7021 11.5716 10.6411 11.5848 10.5748C11.598 10.5084 11.5912 10.4396 11.5653 10.377C11.5394 10.3145 11.4955 10.261 11.4392 10.2234C11.383 10.1858 11.3168 10.1658 11.2491 10.1658C11.204 10.1652 11.1592 10.1736 11.1174 10.1906C11.0757 10.2076 11.0377 10.2328 11.0058 10.2647C10.9739 10.2966 10.9487 10.3345 10.9317 10.3763C10.9147 10.4181 10.9063 10.4629 10.9069 10.508V10.508Z" fill="#545B63" stroke="#545B63" stroke-width="0.604167" stroke-linecap="round" stroke-linejoin="round"/>
<path d="M7.89098 5.93026C7.97691 5.86994 8.04115 5.78356 8.07418 5.6839C8.10721 5.58424 8.10728 5.4766 8.07437 5.3769C8.04147 5.27719 7.97735 5.19073 7.89149 5.1303C7.80563 5.06988 7.7026 5.03869 7.59764 5.04137H7.24653C7.22863 5.04212 7.21079 5.03899 7.19421 5.0322C7.17763 5.02542 7.16272 5.01513 7.15048 5.00205C7.13824 4.98897 7.12897 4.9734 7.12331 4.95641C7.11764 4.93942 7.11571 4.9214 7.11764 4.90359L7.21986 3.87693C7.23879 3.72966 7.21517 3.58005 7.15179 3.44577C7.08841 3.3115 6.98792 3.19818 6.86219 3.11919C6.73646 3.0402 6.59076 2.99885 6.44228 3.00002C6.2938 3.0012 6.14877 3.04485 6.02431 3.12581C5.83859 3.27029 5.60553 3.34005 5.37097 3.32137C5.23237 3.30637 5.09315 3.3436 4.98055 3.4258C4.86794 3.50799 4.79004 3.62923 4.76208 3.76581C4.49693 5.03068 4.38797 6.3233 4.43764 7.61471L6.59764 7.77026L6.65097 6.85026L7.89098 5.93026Z" stroke="#545B63" stroke-width="1.2" stroke-linecap="round" stroke-linejoin="round"/>
<path d="M13.4543 15.1587C12.6249 15.1492 11.8002 15.2576 11.0201 15.4787C10.7618 15.5569 10.4859 15.5929 10.2093 15.5845C9.93268 15.5761 9.66117 15.5234 9.41143 15.4296C9.16169 15.3359 8.93898 15.2031 8.75695 15.0394C8.57493 14.8758 8.43742 14.6846 8.35288 14.4777C7.48003 12.1648 7.24772 9.73207 7.67153 7.34286H4.14248C3.95251 9.44274 3.95251 11.5505 4.14248 13.6504C4.3632 16.3359 6.23609 18.974 7.5576 21.4571C7.5576 21.4571 8.35288 22 13.2286 22C18.6571 22 20.2853 21.4571 20.2853 21.4571V20.767C20.3061 19.317 19.6029 17.9182 18.3262 16.87C17.0495 15.8219 15.3008 15.2076 13.4543 15.1587Z" stroke="#545B63" stroke-width="1.2" stroke-linecap="round" stroke-linejoin="round"/>
<path d="M13.3202 15.0823C12.938 15.0825 12.5577 15.0316 12.1913 14.9311V15.8056C12.1913 16.081 12.3103 16.345 12.522 16.5397C12.7337 16.7343 13.0208 16.8437 13.3202 16.8437C13.6196 16.8437 13.9068 16.7343 14.1185 16.5397C14.3302 16.345 14.4491 16.081 14.4491 15.8056V14.9311C14.0828 15.0316 13.7025 15.0825 13.3202 15.0823V15.0823Z" stroke="#545B63" stroke-linecap="round" stroke-linejoin="round"/>
<path d="M12.7686 12.9449H13.872" stroke="#545B63" stroke-width="0.6" stroke-linecap="round" stroke-linejoin="round"/>
</svg>
