<svg width="30" height="30" viewBox="0 0 30 30" fill="none" xmlns="http://www.w3.org/2000/svg">
<g clip-path="url(#clip0_1991_5466)">
<circle cx="15" cy="15" r="15" fill="#E4F7F5"/>
<path fill-rule="evenodd" clip-rule="evenodd" d="M18.4618 9.80802H19.0387C19.9946 9.80802 20.7694 10.5829 20.7694 11.5388V19.6157C20.7694 20.5716 19.9946 21.3465 19.0387 21.3465H10.9618C10.0059 21.3465 9.23099 20.5716 9.23099 19.6157L9.23099 11.5388C9.23099 10.5829 10.0059 9.80802 10.9618 9.80802H11.5387V9.2311C11.5387 8.91247 11.797 8.65417 12.1156 8.65417C12.4342 8.65417 12.6925 8.91247 12.6925 9.2311V9.80802L17.3079 9.80802V9.2311C17.3079 8.91247 17.5662 8.65417 17.8848 8.65417C18.2035 8.65417 18.4618 8.91247 18.4618 9.2311V9.80802ZM18.4617 16.1542C18.4617 16.4729 18.2034 16.7312 17.8848 16.7312C17.5661 16.7312 17.3078 16.4729 17.3078 16.1542C17.3078 15.8356 17.5661 15.5773 17.8848 15.5773C18.2034 15.5773 18.4617 15.8356 18.4617 16.1542ZM15.0003 19.0386C15.3189 19.0386 15.5772 18.7803 15.5772 18.4616C15.5772 18.143 15.3189 17.8847 15.0003 17.8847C14.6816 17.8847 14.4234 18.143 14.4234 18.4616C14.4234 18.7803 14.6816 19.0386 15.0003 19.0386ZM17.8848 19.0386C18.2034 19.0386 18.4617 18.7803 18.4617 18.4616C18.4617 18.143 18.2034 17.8847 17.8848 17.8847C17.5661 17.8847 17.3078 18.143 17.3078 18.4616C17.3078 18.7803 17.5661 19.0386 17.8848 19.0386ZM15.0003 16.7312C15.3189 16.7312 15.5772 16.4729 15.5772 16.1542C15.5772 15.8356 15.3189 15.5773 15.0003 15.5773C14.6816 15.5773 14.4234 15.8356 14.4234 16.1542C14.4234 16.4729 14.6816 16.7312 15.0003 16.7312ZM19.6157 19.6159C19.6157 19.9346 19.3574 20.1929 19.0388 20.1929H10.9619C10.6432 20.1929 10.3849 19.9346 10.3849 19.6159L10.3849 14.4236H19.6157V19.6159ZM10.3849 13.2697H19.6157V11.539C19.6157 11.2204 19.3574 10.9621 19.0388 10.9621H18.4619V11.539C18.4619 11.8576 18.2036 12.1159 17.8849 12.1159C17.5663 12.1159 17.308 11.8576 17.308 11.539V10.9621H12.6926V11.539C12.6926 11.8576 12.4343 12.1159 12.1157 12.1159C11.7971 12.1159 11.5388 11.8576 11.5388 11.539V10.9621H10.9619C10.6432 10.9621 10.3849 11.2204 10.3849 11.539V13.2697ZM12.1155 16.7312C12.4342 16.7312 12.6925 16.4729 12.6925 16.1542C12.6925 15.8356 12.4342 15.5773 12.1155 15.5773C11.7969 15.5773 11.5386 15.8356 11.5386 16.1542C11.5386 16.4729 11.7969 16.7312 12.1155 16.7312ZM12.6925 18.4616C12.6925 18.7803 12.4342 19.0386 12.1155 19.0386C11.7969 19.0386 11.5386 18.7803 11.5386 18.4616C11.5386 18.143 11.7969 17.8847 12.1155 17.8847C12.4342 17.8847 12.6925 18.143 12.6925 18.4616Z" fill="#00A981"/>
</g>
<defs>
<clipPath id="clip0_1991_5466">
<rect width="30" height="30" fill="white"/>
</clipPath>
</defs>
</svg>
