<svg width="19" height="22" viewBox="0 0 19 22" fill="none" xmlns="http://www.w3.org/2000/svg">
<path fill-rule="evenodd" clip-rule="evenodd" d="M8 4.88892C4.62492 4.88892 1.88889 7.62495 1.88889 11C1.88889 14.3751 4.62492 17.1111 8 17.1111C11.3751 17.1111 14.1111 14.3751 14.1111 11C14.1111 9.37926 13.4673 7.82487 12.3212 6.67882C11.1751 5.53276 9.62076 4.88892 8 4.88892ZM7.38889 8.55558C7.38889 8.21808 7.66249 7.94447 8 7.94447C8.3375 7.94447 8.61111 8.21808 8.61111 8.55558V11C8.61111 11.3375 8.3375 11.6111 8 11.6111C7.66249 11.6111 7.38889 11.3375 7.38889 11V8.55558ZM8.50722 13.1023C8.53035 13.1363 8.54884 13.1733 8.56222 13.2123C8.58409 13.2462 8.60059 13.2833 8.61111 13.3223C8.61411 13.3629 8.61411 13.4038 8.61111 13.4445C8.61014 13.5243 8.59353 13.6032 8.56222 13.6767C8.50665 13.8302 8.38575 13.9511 8.23222 14.0067C8.08431 14.0721 7.91569 14.0721 7.76777 14.0067C7.61424 13.9511 7.49334 13.8302 7.43777 13.6767C7.40646 13.6032 7.38985 13.5243 7.38889 13.4445C7.38795 13.282 7.45172 13.1259 7.56611 13.0106C7.62551 12.9566 7.69372 12.9132 7.76777 12.8823C7.99535 12.7866 8.25815 12.8372 8.43389 13.0106L8.50722 13.1023ZM3.11111 11C3.11111 13.7001 5.29994 15.8889 8 15.8889C9.29661 15.8889 10.5401 15.3738 11.457 14.457C12.3738 13.5402 12.8889 12.2966 12.8889 11C12.8889 8.29997 10.7001 6.11114 8 6.11114C5.29994 6.11114 3.11111 8.29997 3.11111 11Z" fill="#00A981"/>
</svg>
