<svg width="19" height="22" viewBox="0 0 19 22" fill="none" xmlns="http://www.w3.org/2000/svg">
<path fill-rule="evenodd" clip-rule="evenodd" d="M2.34118 4.90727C2.55293 4.85054 2.77887 4.91108 2.93388 5.06609L13.9339 16.0661C14.0496 16.1808 14.1146 16.337 14.1146 16.5C14.1146 16.6629 14.0496 16.8191 13.9339 16.9339C13.8191 17.0496 13.6629 17.1146 13.5 17.1146C13.337 17.1146 13.1809 17.0496 13.0661 16.9339L11.0861 14.9478C10.1705 15.5543 9.09823 15.8813 7.99999 15.8889C5.49444 15.8889 3.17222 14.1105 1.93777 11.2444C1.86975 11.0886 1.86975 10.9114 1.93777 10.7555C2.40824 9.65186 3.09618 8.65425 3.96055 7.8222L2.0661 5.93387C1.91109 5.77885 1.85055 5.55292 1.90729 5.34116C1.96403 5.12941 2.12943 4.96401 2.34118 4.90727ZM7.99999 7.33331C7.78313 7.333 7.56657 7.34934 7.35222 7.3822V7.40665C7.13389 7.44376 6.91234 7.36158 6.77103 7.19106C6.62973 7.02054 6.59012 6.78759 6.66714 6.57995C6.74417 6.37231 6.92611 6.22154 7.14444 6.18442C7.42682 6.13419 7.71318 6.10964 7.99999 6.11109C10.5055 6.11109 12.8278 7.88942 14.0622 10.7555C14.1285 10.9096 14.1285 11.0842 14.0622 11.2383C13.8548 11.7264 13.6075 12.1965 13.3228 12.6439C13.1829 12.8796 12.9032 12.9934 12.6385 12.9222C12.3738 12.8511 12.1889 12.6124 12.1861 12.3383C12.1852 12.2191 12.2192 12.1023 12.2839 12.0022C12.4876 11.6797 12.6713 11.345 12.8339 11C11.7705 8.73276 9.94333 7.33331 7.99999 7.33331ZM6.82055 10.6822L8.31777 12.1794C8.21449 12.209 8.10743 12.2235 7.99999 12.2222C7.32498 12.2222 6.77777 11.675 6.77777 11C6.77652 10.8925 6.79093 10.7855 6.82055 10.6822ZM3.17222 11C4.22944 13.2672 6.05666 14.6666 7.99999 14.6666C8.77209 14.6579 9.52844 14.4472 10.1939 14.0555L9.22222 13.0961C8.26973 13.618 7.08713 13.4488 6.31915 12.6808C5.55117 11.9128 5.382 10.7302 5.90388 9.77776L4.82222 8.68387C4.12743 9.34178 3.56705 10.1284 3.17222 11Z" fill="#00A981"/>
</svg>
