<svg width="19" height="22" viewBox="0 0 19 22" fill="none" xmlns="http://www.w3.org/2000/svg">
<path fill-rule="evenodd" clip-rule="evenodd" d="M9.44227 5.68948C10.5124 4.62597 12.2404 4.62597 13.3106 5.68948C14.3674 6.76634 14.3565 8.49439 13.2862 9.55781L10.5056 12.3384C9.49255 13.3529 7.86755 13.4116 6.78393 12.4728C6.7347 12.4327 6.68777 12.3899 6.64338 12.3445C6.40206 12.1082 6.39796 11.7211 6.63421 11.4798C6.87047 11.2384 7.25762 11.2343 7.49893 11.4706L7.57227 11.5317C8.16716 12.0683 9.07835 12.0441 9.64393 11.4767L12.4184 8.69614C13.009 8.1055 13.009 7.14789 12.4184 6.55725C11.8277 5.96662 10.8701 5.96662 10.2795 6.55725L9.22227 7.60836C8.97412 7.81118 8.61144 7.78784 8.39133 7.55488C8.17123 7.32193 8.16849 6.95851 8.38505 6.72225L9.44227 5.68948ZM5.69611 15.4428L6.77777 14.3916C7.02592 14.1888 7.3886 14.2122 7.60871 14.4451C7.82881 14.6781 7.83156 15.0415 7.615 15.2778L6.55777 16.3105C5.4775 17.303 3.80694 17.2676 2.76964 16.2303C1.73234 15.193 1.69697 13.5225 2.68944 12.4422L5.50055 9.66164C6.51231 8.64416 8.13968 8.58537 9.22222 9.5272C9.26101 9.56811 9.29773 9.61094 9.33222 9.65553C9.57353 9.89179 9.57764 10.2789 9.34138 10.5203C9.10513 10.7616 8.71798 10.7657 8.47666 10.5294L8.40333 10.4683C7.80843 9.9317 6.89724 9.95589 6.33166 10.5233L3.55722 13.3039C2.96658 13.8945 2.96658 14.8521 3.55722 15.4428C4.14786 16.0334 5.10547 16.0334 5.69611 15.4428Z" fill="#00A981"/>
</svg>
