<svg width="12" height="14" viewBox="0 0 12 14" fill="none" xmlns="http://www.w3.org/2000/svg">
<path fill-rule="evenodd" clip-rule="evenodd" d="M1.99999 1.98667C4.20913 -0.222474 7.79086 -0.222474 9.99999 1.98667C12.1999 4.18661 12.1999 7.75339 9.99999 9.95333L6.45999 13.5067C6.33482 13.6329 6.16442 13.7039 5.98666 13.7039C5.8089 13.7039 5.6385 13.6329 5.51333 13.5067L1.99999 9.98667C-0.209145 7.77753 -0.209145 4.1958 1.99999 1.98667ZM5.99999 12.06L9.04666 9C10.7274 7.31773 10.7266 4.59162 9.0448 2.91038C7.36305 1.22914 4.63694 1.22914 2.95519 2.91038C1.27343 4.59162 1.2726 7.31773 2.95333 9L5.99999 12.06ZM3.99999 3.94C2.87946 5.06399 2.87946 6.88268 3.99999 8.00667C4.81752 8.82559 6.0465 9.07421 7.11804 8.63743C8.18959 8.20066 8.89457 7.16374 8.90666 6.00667C8.91273 5.24326 8.60975 4.50987 8.06666 3.97333C7.533 3.42743 6.80365 3.11694 6.04026 3.11068C5.27688 3.10443 4.54253 3.40292 3.99999 3.94ZM5.16367 7.26595C5.78313 7.67527 6.60564 7.58897 7.12666 7.06H7.09333C7.39099 6.77568 7.56363 6.38485 7.57333 5.97333C7.57493 5.23086 7.05087 4.59106 6.32262 4.44641C5.59437 4.30176 4.86557 4.69271 4.5833 5.37944C4.30103 6.06616 4.54421 6.85663 5.16367 7.26595Z" fill="#A5B1C2"/>
</svg>
