<svg width="24" height="24" viewBox="0 0 24 24" fill="none" xmlns="http://www.w3.org/2000/svg">
<path fill-rule="evenodd" clip-rule="evenodd" d="M16.6049 12.6085C16.7231 12.6373 16.8437 12.6667 16.9601 12.6667C17.9002 12.8353 18.5899 13.6451 18.6067 14.6V16.6C18.6094 17.1724 18.3667 17.7184 17.9401 18.1C17.573 18.427 17.0984 18.6074 16.6067 18.6067H16.3534C10.6053 17.897 6.0707 13.3789 5.34008 7.63335C5.2606 7.05741 5.43567 6.47539 5.8197 6.03887C6.20373 5.60236 6.75871 5.35456 7.34008 5.36002H9.34008C10.3244 5.3457 11.1728 6.04986 11.3401 7.02002C11.3601 7.17335 11.3867 7.32668 11.4201 7.47335C11.4874 7.76988 11.5742 8.06163 11.6801 8.34668C11.9131 8.98718 11.6255 9.7003 11.0134 10L10.7334 10.1867C11.0946 10.836 11.5433 11.4327 12.0667 11.96C12.5941 12.4835 13.1907 12.9321 13.8401 13.2933L13.9867 12.9934C14.2865 12.3812 14.9996 12.0937 15.6401 12.3267C15.9245 12.4343 16.2164 12.5212 16.5134 12.5867C16.5437 12.5936 16.5742 12.601 16.6049 12.6085ZM17.0667 17.1667C17.2106 17.0403 17.2932 16.8582 17.2934 16.6667L17.2801 14.5867C17.2872 14.2669 17.0662 13.9871 16.7534 13.92C16.5712 13.8933 16.3912 13.86 16.2134 13.82C15.8565 13.739 15.5047 13.6366 15.1601 13.5133L14.7467 14.4467C14.6716 14.6084 14.5347 14.7333 14.3667 14.7934C14.2044 14.86 14.0224 14.86 13.8601 14.7934C11.8049 13.8339 10.1529 12.1819 9.19341 10.1267C9.11874 9.96584 9.11122 9.78188 9.17253 9.61548C9.23383 9.44908 9.3589 9.31397 9.52008 9.24002L10.4534 8.80668C10.3263 8.47014 10.2238 8.12478 10.1467 7.77335C10.1067 7.59557 10.0734 7.41557 10.0467 7.23335C9.97965 6.92059 9.69988 6.69957 9.38008 6.70668H7.38008C7.1886 6.70693 7.00646 6.78949 6.88008 6.93335C6.75219 7.08516 6.69197 7.28268 6.71341 7.48002C7.34756 12.6191 11.3841 16.6748 16.5201 17.3334C16.7177 17.3581 16.9165 17.2975 17.0667 17.1667Z" fill="#A5B1C2"/>
</svg>
