<svg width="30" height="30" viewBox="0 0 30 30" fill="none" xmlns="http://www.w3.org/2000/svg">
<g clip-path="url(#clip0_1991_5442)">
<circle cx="15" cy="15" r="15" fill="#E4F7F5"/>
<path fill-rule="evenodd" clip-rule="evenodd" d="M23.0773 16.1541L23.0773 13.8464C23.0773 13.5277 22.819 13.2694 22.5004 13.2694L10.9619 13.2694C10.6433 13.2694 10.385 13.5277 10.385 13.8464L10.385 16.1541C10.385 16.4727 10.6433 16.731 10.9619 16.731L22.5004 16.731C22.819 16.731 23.0773 16.4727 23.0773 16.1541ZM18.462 20.7693L18.462 18.4616C18.462 18.143 18.2037 17.8847 17.8851 17.8847L10.962 17.8847C10.6434 17.8847 10.3851 18.143 10.3851 18.4616L10.3851 20.7693C10.3851 21.088 10.6434 21.3463 10.962 21.3463L17.8851 21.3463C18.2037 21.3463 18.462 21.088 18.462 20.7693ZM16.1542 9.2311L16.1542 11.5388C16.1542 11.8574 15.8959 12.1157 15.5772 12.1157L10.9618 12.1157C10.6432 12.1157 10.3849 11.8574 10.3849 11.5388L10.3849 9.2311C10.3849 8.91247 10.6432 8.65417 10.9618 8.65417L15.5772 8.65417C15.8959 8.65417 16.1542 8.91247 16.1542 9.2311ZM11.5389 9.80787L11.5389 10.9617L15.0005 10.9617L15.0005 9.80787L11.5389 9.80787ZM11.5389 19.0389L11.5389 20.1928L17.3081 20.1928L17.3081 19.0389L11.5389 19.0389ZM11.5387 14.4236L11.5387 15.5775L21.9234 15.5775L21.9234 14.4236L11.5387 14.4236Z" fill="#00A981"/>
</g>
<defs>
<clipPath id="clip0_1991_5442">
<rect width="30" height="30" fill="white"/>
</clipPath>
</defs>
</svg>
