<svg width="30" height="30" viewBox="0 0 30 30" fill="none" xmlns="http://www.w3.org/2000/svg">
<g clip-path="url(#clip0_1991_5420)">
<circle cx="15" cy="15" r="15" fill="#E4F7F5"/>
<path fill-rule="evenodd" clip-rule="evenodd" d="M9.23099 15.0002C9.23099 11.8139 11.814 9.23096 15.0002 9.23096C16.5303 9.23096 17.9977 9.83878 19.0797 10.9207C20.1616 12.0027 20.7694 13.4701 20.7694 15.0002C20.7694 18.1864 18.1865 20.7694 15.0002 20.7694C11.814 20.7694 9.23099 18.1864 9.23099 15.0002ZM14.5213 16.9847C14.5426 16.9545 14.5657 16.9256 14.5906 16.8981C14.6989 16.7889 14.8463 16.7275 15.0002 16.7275C15.154 16.7275 15.3015 16.7889 15.4098 16.8981C15.5178 17.007 15.578 17.1544 15.5771 17.3078C15.5799 17.3824 15.5681 17.4568 15.5425 17.527C15.49 17.6719 15.3759 17.7861 15.2309 17.8385C15.0913 17.9002 14.9321 17.9002 14.7925 17.8385C14.6475 17.7861 14.5334 17.6719 14.4809 17.527C14.4486 17.4585 14.4328 17.3834 14.4348 17.3078C14.432 17.2693 14.432 17.2308 14.4348 17.1924C14.4411 17.1562 14.4528 17.1212 14.4694 17.0885C14.482 17.0518 14.4995 17.0168 14.5213 16.9847ZM15.0003 19.6154C12.4513 19.6154 10.3849 17.549 10.3849 15C10.3849 12.451 12.4513 10.3847 15.0003 10.3847C17.5493 10.3847 19.6157 12.451 19.6157 15C19.6157 16.2241 19.1294 17.3981 18.2639 18.2636C17.3983 19.1292 16.2244 19.6154 15.0003 19.6154ZM13.5002 12.9811C13.8095 12.4452 14.3814 12.1153 15.0002 12.1157C15.8379 12.1222 16.5506 12.7277 16.6925 13.5533C16.8344 14.3789 16.3646 15.1876 15.5771 15.4734V15.5772C15.5771 15.8959 15.3188 16.1541 15.0002 16.1541C14.6815 16.1541 14.4232 15.8959 14.4232 15.5772V15.0003C14.4232 14.6817 14.6815 14.4234 15.0002 14.4234C15.3188 14.4234 15.5771 14.1651 15.5771 13.8465C15.5771 13.5278 15.3188 13.2695 15.0002 13.2695C14.7932 13.2687 14.6017 13.3788 14.4982 13.558C14.4 13.7458 14.2067 13.8646 13.9948 13.8674C13.7829 13.8703 13.5865 13.7568 13.4833 13.5717C13.38 13.3867 13.3865 13.1599 13.5002 12.9811Z" fill="#00A981"/>
</g>
<defs>
<clipPath id="clip0_1991_5420">
<rect width="30" height="30" fill="white"/>
</clipPath>
</defs>
</svg>
