<svg width="24" height="24" viewBox="0 0 24 24" fill="none" xmlns="http://www.w3.org/2000/svg">
<path fill-rule="evenodd" clip-rule="evenodd" d="M16 15.0733L18.4733 17.5267C18.7231 17.7851 18.7231 18.1949 18.4733 18.4533C18.3482 18.5795 18.1778 18.6505 18 18.6505C17.8222 18.6505 17.6519 18.5795 17.5267 18.4533L15.0733 16C12.5878 17.9935 8.97752 17.6965 6.8511 15.3237C4.72468 12.9509 4.82377 9.32977 7.07677 7.07677C9.32977 4.82377 12.9509 4.72468 15.3237 6.8511C17.6965 8.97752 17.9935 12.5878 16 15.0733ZM6.66667 11.3333C6.66667 13.9107 8.75601 16 11.3333 16C12.571 16 13.758 15.5083 14.6332 14.6332C15.5083 13.758 16 12.571 16 11.3333C16 8.75601 13.9107 6.66667 11.3333 6.66667C8.75601 6.66667 6.66667 8.75601 6.66667 11.3333Z" fill="#C8C8C8"/>
</svg>
