<svg width="14" height="14" viewBox="0 0 14 14" fill="none" xmlns="http://www.w3.org/2000/svg">
<path fill-rule="evenodd" clip-rule="evenodd" d="M8.94664 9.32001C9.4491 8.7006 10.2024 8.33862 11 8.33334C12.4727 8.33334 13.6666 9.52725 13.6666 11C13.6666 12.4728 12.4727 13.6667 11 13.6667C9.52722 13.6667 8.33331 12.4728 8.33331 11C8.33532 10.8412 8.35093 10.6828 8.37998 10.5267L4.85998 8.90668C3.81252 9.93087 2.13499 9.91832 1.10299 8.87856C0.0709775 7.8388 0.0709775 6.16122 1.10299 5.12146C2.13499 4.0817 3.81252 4.06915 4.85998 5.09334L8.37998 3.47334C8.35093 3.31719 8.33532 3.15883 8.33331 3.00001C8.32282 1.70236 9.24799 0.585556 10.5249 0.354425C11.8019 0.123295 13.0598 0.84495 13.5048 2.06395C13.9499 3.28295 13.4528 4.64533 12.3273 5.29128C11.2018 5.93723 9.77468 5.67919 8.94664 4.68001L5.54664 6.24668C5.7065 6.73618 5.7065 7.26384 5.54664 7.75334L8.94664 9.32001ZM12.3333 3.00001C12.3333 2.26363 11.7364 1.66668 11 1.66668C10.2636 1.66668 9.66665 2.26363 9.66665 3.00001C9.66665 3.73639 10.2636 4.33334 11 4.33334C11.7364 4.33334 12.3333 3.73639 12.3333 3.00001ZM2.99998 8.33334C2.2636 8.33334 1.66664 7.73639 1.66664 7.00001C1.66664 6.26363 2.2636 5.66668 2.99998 5.66668C3.73636 5.66668 4.33331 6.26363 4.33331 7.00001C4.33331 7.73639 3.73636 8.33334 2.99998 8.33334ZM9.66665 11C9.66665 11.7364 10.2636 12.3333 11 12.3333C11.7364 12.3333 12.3333 11.7364 12.3333 11C12.3333 10.2636 11.7364 9.66668 11 9.66668C10.2636 9.66668 9.66665 10.2636 9.66665 11Z" fill="#545B63"/>
</svg>
