<svg width="19" height="22" viewBox="0 0 19 22" fill="none" xmlns="http://www.w3.org/2000/svg">
<path fill-rule="evenodd" clip-rule="evenodd" d="M8.79444 11.1344C9.45423 10.5633 9.83334 9.73373 9.83333 8.8611C9.83333 7.17356 8.46531 5.80554 6.77777 5.80554C5.09024 5.80554 3.72222 7.17356 3.72222 8.8611C3.72221 9.73373 4.10132 10.5633 4.76111 11.1344C3.01391 11.9256 1.89072 13.6653 1.88889 15.5833C1.88889 15.9208 2.16249 16.1944 2.5 16.1944C2.8375 16.1944 3.11111 15.9208 3.11111 15.5833C3.11111 13.5583 4.75273 11.9167 6.77777 11.9167C8.80282 11.9167 10.4444 13.5583 10.4444 15.5833C10.4444 15.9208 10.718 16.1944 11.0556 16.1944C11.3931 16.1944 11.6667 15.9208 11.6667 15.5833C11.6648 13.6653 10.5416 11.9256 8.79444 11.1344ZM6.77777 10.6944C5.76525 10.6944 4.94444 9.87362 4.94444 8.8611C4.94444 7.84858 5.76525 7.02776 6.77777 7.02776C7.7903 7.02776 8.61111 7.84858 8.61111 8.8611C8.61111 9.34733 8.41795 9.81364 8.07414 10.1575C7.73032 10.5013 7.26401 10.6944 6.77777 10.6944ZM13.9339 10.5172L13.445 11L13.9339 11.4828C14.0496 11.5975 14.1147 11.7537 14.1147 11.9167C14.1147 12.0796 14.0496 12.2358 13.9339 12.3505C13.8191 12.4662 13.6629 12.5313 13.5 12.5313C13.3371 12.5313 13.1809 12.4662 13.0661 12.3505L12.5833 11.8617L12.1006 12.3505C11.9858 12.4662 11.8296 12.5313 11.6667 12.5313C11.5037 12.5313 11.3475 12.4662 11.2328 12.3505C11.1171 12.2358 11.052 12.0796 11.052 11.9167C11.052 11.7537 11.1171 11.5975 11.2328 11.4828L11.7217 11L11.2328 10.5172C11.0778 10.3622 11.0172 10.1363 11.074 9.92451C11.1307 9.71275 11.2961 9.54736 11.5078 9.49062C11.7196 9.43388 11.9455 9.49442 12.1006 9.64943L12.5833 10.1383L13.0661 9.64943C13.2211 9.49442 13.4471 9.43388 13.6588 9.49062C13.8706 9.54736 14.036 9.71275 14.0927 9.92451C14.1494 10.1363 14.0889 10.3622 13.9339 10.5172Z" fill="#00A981"/>
</svg>
