<svg width="12" height="15" viewBox="0 0 12 15" fill="none" xmlns="http://www.w3.org/2000/svg">
<path d="M6.77913 13.3217L6.77921 13.3216L11.1848 8.84818L11.1847 8.84811L11.1908 8.84215C11.4436 8.59689 11.5979 8.26339 11.6218 7.90682C11.6454 7.55242 11.5384 7.20255 11.3228 6.92517C11.1984 6.77885 11.0448 6.66168 10.8728 6.58121C10.699 6.49996 10.5103 6.45795 10.3194 6.45784C9.9696 6.45955 9.63349 6.60192 9.38506 6.85569L9.38507 6.85569L9.38344 6.85733L8.45612 7.79303C8.06321 8.18949 7.38719 7.91125 7.38719 7.35308V1.75647H7.38715L7.38723 1.75109C7.3901 1.55102 7.3495 1.35293 7.26852 1.17099C7.18754 0.989063 7.06828 0.827976 6.91961 0.698948C6.77095 0.569937 6.59652 0.476106 6.40885 0.423747C6.22293 0.371875 6.02822 0.361877 5.83824 0.394374C5.53063 0.458728 5.25256 0.62771 5.05043 0.874987C4.84757 1.12317 4.73367 1.4351 4.72864 1.75921V7.35308C4.72864 7.91125 4.05263 8.18949 3.65972 7.79303L2.73239 6.85733L2.72179 6.84663L2.71208 6.83512C2.59254 6.69337 2.44575 6.57863 2.28116 6.49777C2.11658 6.41692 1.93758 6.3716 1.75536 6.36446C1.57313 6.35731 1.3913 6.38847 1.22121 6.45614C1.05109 6.52381 0.896179 6.62662 0.766356 6.75845C0.636519 6.89029 0.534595 7.0483 0.467297 7.22272C0.399996 7.39716 0.368866 7.58403 0.375999 7.77154C0.383132 7.95905 0.428361 8.14286 0.508654 8.31138C0.588942 8.47989 0.702466 8.6293 0.841788 8.75045L0.852864 8.76009L0.863154 8.77056L5.3367 13.3217C5.43193 13.4185 5.54468 13.4949 5.66836 13.547C5.79204 13.599 5.92439 13.6257 6.05792 13.6257C6.19144 13.6257 6.3238 13.599 6.44747 13.547C6.57116 13.4949 6.68391 13.4185 6.77913 13.3217Z" stroke="#545B63" stroke-width="0.75"/>
</svg>
