<svg width="12" height="15" viewBox="0 0 12 15" fill="none" xmlns="http://www.w3.org/2000/svg">
<path d="M7.0464 1.41523C6.91662 1.28337 6.76252 1.17876 6.59291 1.1074C6.4233 1.03603 6.24151 0.999298 6.05792 0.999298C5.87433 0.999298 5.69253 1.03603 5.52292 1.1074C5.35332 1.17876 5.19922 1.28337 5.06944 1.41523L0.595718 5.96657C0.417312 6.12171 0.272413 6.31262 0.170117 6.52732C0.067821 6.74202 0.0103359 6.97587 0.00127 7.2142C-0.00779588 7.45253 0.0317532 7.69019 0.117435 7.91227C0.203117 8.13434 0.333081 8.33603 0.499171 8.50468C0.66526 8.67333 0.863889 8.8053 1.08259 8.8923C1.30129 8.9793 1.53534 9.01946 1.77005 9.01026C2.00477 9.00105 2.23507 8.94268 2.44651 8.83881C2.65795 8.73493 2.84596 8.5878 2.99874 8.40664L3.92607 7.47094C4.08324 7.31236 4.35364 7.42365 4.35364 7.64692V13.2435C4.35929 13.6527 4.50273 14.0475 4.76009 14.3623C5.01744 14.6772 5.37321 14.8931 5.76819 14.9741C6.01498 15.0173 6.26813 15.0048 6.50963 14.9375C6.75112 14.8701 6.97502 14.7495 7.1654 14.5843C7.35578 14.419 7.50796 14.2132 7.61111 13.9815C7.71426 13.7498 7.76584 13.4978 7.76219 13.2435V7.64692C7.76219 7.42365 8.0326 7.31236 8.18976 7.47094L9.11709 8.40664C9.43524 8.73163 9.86733 8.91522 10.3186 8.91716C10.5648 8.91717 10.808 8.86304 11.0316 8.75848C11.2552 8.65392 11.4538 8.50142 11.6139 8.31146C11.8896 7.96 12.0259 7.51651 11.9959 7.06818C11.966 6.61984 11.7719 6.19911 11.4519 5.8887L7.0464 1.41523Z" fill="#00A981"/>
</svg>
